HIERARCHY
ROOT Hips
{
	OFFSET 0.000000 0.000000 0.000000
	CHANNELS 6 Xposition Yposition Zposition Yrotation Xrotation Zrotation
	JOINT Chest
	{
		OFFSET 0.000000 -0.009281 11.569106
		CHANNELS 3 Yrotation Xrotation Zrotation
		JOINT Chest2
		{
			OFFSET -0.000000 0.016865 9.269641
			CHANNELS 3 Yrotation Xrotation Zrotation
			JOINT Chest3
			{
				OFFSET -0.000000 0.000001 8.374491
				CHANNELS 3 Yrotation Xrotation Zrotation
				JOINT Chest4
				{
					OFFSET -0.000000 0.000001 8.374493
					CHANNELS 3 Yrotation Xrotation Zrotation
					JOINT Neck
					{
						OFFSET -0.000000 0.000002 12.152554
						CHANNELS 3 Yrotation Xrotation Zrotation
						JOINT Head
						{
							OFFSET -0.000000 0.040101 7.802319
							CHANNELS 3 Yrotation Xrotation Zrotation
							End Site
							{
								OFFSET -0.000000 0.020947 14.853096
							}
						}
					}
					JOINT RightCollar
					{
						OFFSET 2.894404 0.000001 6.791374
						CHANNELS 3 Yrotation Xrotation Zrotation
						JOINT RightShoulder
						{
							OFFSET 13.574684 0.000001 0.000000
							CHANNELS 3 Yrotation Xrotation Zrotation
							JOINT RightElbow
							{
								OFFSET 23.923903 0.000002 0.000000
								CHANNELS 3 Yrotation Xrotation Zrotation
								JOINT RightWrist
								{
									OFFSET 19.846718 0.012767 0.000000
									CHANNELS 3 Yrotation Xrotation Zrotation
									End Site
									{
										OFFSET 14.973145 0.000001 0.000000
									}
								}
							}
						}
					}
					JOINT LeftCollar
					{
						OFFSET -2.894404 0.000001 6.791374
						CHANNELS 3 Yrotation Xrotation Zrotation
						JOINT LeftShoulder
						{
							OFFSET -13.574684 -0.000001 0.000000
							CHANNELS 3 Yrotation Xrotation Zrotation
							JOINT LeftElbow
							{
								OFFSET -23.923903 -0.000002 0.000000
								CHANNELS 3 Yrotation Xrotation Zrotation
								JOINT LeftWrist
								{
									OFFSET -19.846718 0.012763 0.000000
									CHANNELS 3 Yrotation Xrotation Zrotation
									End Site
									{
										OFFSET -14.973145 -0.000001 0.000000
									}
								}
							}
						}
					}
				}
			}
		}
	}
	JOINT RightHip
	{
		OFFSET 9.469263 0.004643 0.045487
		CHANNELS 3 Yrotation Xrotation Zrotation
		JOINT RightKnee
		{
			OFFSET 0.000000 0.002661 -40.478676
			CHANNELS 3 Yrotation Xrotation Zrotation
			JOINT RightAnkle
			{
				OFFSET 0.000000 0.049106 -35.224068
				CHANNELS 3 Yrotation Xrotation Zrotation
				JOINT RightToe
				{
					OFFSET -0.000001 12.539529 -6.151390
					CHANNELS 3 Yrotation Xrotation Zrotation
					End Site
					{
						OFFSET -0.000001 5.044994 -1.291870
					}
				}
			}
		}
	}
	JOINT LeftHip
	{
		OFFSET -9.469263 0.004641 0.045487
		CHANNELS 3 Yrotation Xrotation Zrotation
		JOINT LeftKnee
		{
			OFFSET 0.000000 0.002661 -40.478676
			CHANNELS 3 Yrotation Xrotation Zrotation
			JOINT LeftAnkle
			{
				OFFSET 0.000000 0.049106 -35.224068
				CHANNELS 3 Yrotation Xrotation Zrotation
				JOINT LeftToe
				{
					OFFSET -0.000001 12.539529 -6.151390
					CHANNELS 3 Yrotation Xrotation Zrotation
					End Site
					{
						OFFSET -0.000001 5.044994 -1.291870
					}
				}
			}
		}
	}
}
MOTION
Frames: 9
Frame Time: 0.016667
13.042085 5.408996 82.911446 -3.884061 -1.644178 -108.886773 -1.581215 -4.359864 1.339972 -0.686697 -1.941587 0.566403 -0.686697 -1.941587 0.566403 -0.513173 -1.456830 0.422581 1.498133 -25.789468 -0.700517 2.514221 -11.707427 -0.905015 7.940001 3.100263 -3.487034 62.868264 43.597941 27.757045 6.872054 30.904782 17.031463 -64.222445 16.359920 4.238754 -7.927365 -0.409045 -4.919049 -56.932567 44.985238 -31.697498 -14.448989 34.710769 -22.631868 44.101893 17.916877 -1.604963 -0.430847 -6.631872 -1.932986 2.345891 -4.570775 -6.369526 -1.686432 6.430071 0.460315 0.033670 0.007423 0.009207 -0.172881 -8.138372 1.661162 0.498976 -2.101313 0.451831 0.051547 5.906128 1.956900 -0.000718 -0.005459 -0.003521 
13.098253 5.366468 82.907509 -3.915095 -1.651394 -108.865846 -1.585574 -4.325878 1.347694 -0.688776 -1.926643 0.569948 -0.688776 -1.926643 0.569949 -0.514738 -1.445629 0.425249 1.514323 -25.724842 -0.724503 2.537457 -11.587146 -0.943099 7.903910 3.117588 -3.431191 63.200137 43.378012 28.799400 7.577677 32.070480 17.393550 -64.010538 16.647736 3.241035 -7.835777 -0.290958 -5.017406 -56.970096 44.803336 -32.284880 -15.198887 35.430712 -23.068341 43.871811 18.692218 -0.071595 -0.420356 -6.718840 -1.939165 2.358434 -4.564304 -6.358263 -1.708560 6.474615 0.435168 0.030788 0.010827 0.009302 -0.156396 -8.216210 1.642912 0.501185 -2.104312 0.468964 0.018698 5.941001 1.926398 0.006813 0.000383 -0.003401 
13.153347 5.322633 82.903381 -3.942273 -1.655251 -108.842077 -1.579594 -4.289223 1.352850 -0.686242 -1.910326 0.572409 -0.686242 -1.910326 0.572412 -0.512845 -1.433393 0.427122 1.522248 -25.662914 -0.750227 2.545495 -11.471797 -0.986236 7.851794 3.142179 -3.366706 63.543108 43.149546 29.879776 8.162874 33.151211 17.730425 -63.865213 16.927562 2.383323 -7.777907 -0.060978 -5.107664 -56.943468 44.593851 -32.728484 -15.899552 35.911622 -23.541770 43.661834 19.533962 1.342899 -0.407631 -6.801288 -1.950786 2.366167 -4.557381 -6.347287 -1.726824 6.519375 0.406253 0.026339 0.012954 0.009148 -0.141256 -8.285262 1.609493 0.501732 -2.114624 0.499321 -0.012745 5.977275 1.918297 0.012486 0.006326 -0.003501 
13.209476 5.279609 82.899429 -3.972352 -1.660126 -108.818990 -1.560869 -4.256356 1.353443 -0.677397 -1.895472 0.572924 -0.677397 -1.895472 0.572930 -0.506224 -1.422242 0.427556 1.512364 -25.597650 -0.773083 2.522331 -11.350253 -1.028359 7.794167 3.259361 -3.305740 63.780306 42.831566 30.888619 8.768280 34.277632 18.145233 -63.825632 17.317086 1.536637 -7.731825 0.086833 -5.206828 -56.942792 44.375377 -33.202584 -16.624207 36.389882 -24.158625 43.445368 20.287093 2.568025 -0.395684 -6.886729 -1.964584 2.371420 -4.551250 -6.323182 -1.740600 6.563087 0.374737 0.020719 0.015471 0.009730 -0.127547 -8.356534 1.587071 0.508325 -2.126576 0.526949 -0.048456 6.012952 1.883163 0.016201 0.012077 -0.005025 
13.265973 5.237860 82.896057 -4.004875 -1.666226 -108.799723 -1.551020 -4.238330 1.364756 -0.672321 -1.887500 0.577221 -0.672321 -1.887500 0.577220 -0.502412 -1.416264 0.430801 1.508017 -25.516562 -0.796894 2.508757 -11.199326 -1.070678 7.754178 3.413314 -3.303227 63.991530 42.498943 31.889651 9.489963 35.389041 18.672330 -63.809547 17.724729 0.683765 -7.661985 0.163466 -5.360895 -56.908491 44.225147 -33.732655 -17.428863 36.910656 -24.840252 43.399842 20.991436 3.646023 -0.386206 -6.971549 -1.975583 2.380777 -4.551028 -6.295378 -1.754905 6.607041 0.339719 0.015092 0.019679 0.009943 -0.116616 -8.431637 1.572170 0.514468 -2.137507 0.555350 -0.082870 6.045417 1.852240 0.020139 0.019224 -0.005468 
13.322866 5.198146 82.892738 -4.037493 -1.670470 -108.782292 -1.548834 -4.216389 1.374667 -0.671014 -1.877805 0.581397 -0.671014 -1.877805 0.581394 -0.501429 -1.408995 0.433944 1.507369 -25.434819 -0.815630 2.502942 -11.047283 -1.103079 7.698211 3.502190 -3.248229 64.224863 42.262243 32.917260 10.231985 36.430634 19.205599 -63.782902 18.066217 -0.126775 -7.583484 0.251545 -5.486519 -56.861301 44.065679 -34.338496 -18.155713 37.438084 -25.379588 43.524762 21.638068 4.577419 -0.382682 -7.057106 -2.002786 2.393352 -4.548315 -6.260718 -1.770151 6.649835 0.317938 0.011718 0.022773 0.010591 -0.108725 -8.503945 1.553835 0.521695 -2.152449 0.589415 -0.117815 6.078014 1.828491 0.023337 0.026090 -0.006301 
13.380767 5.159239 82.888504 -4.071410 -1.671847 -108.757170 -1.551859 -4.189857 1.374454 -0.672551 -1.865602 0.581784 -0.672551 -1.865603 0.581781 -0.502593 -1.399846 0.434249 1.506926 -25.361850 -0.827523 2.499115 -10.911614 -1.123349 7.612375 3.520627 -3.202266 64.544058 42.033093 34.056723 10.920383 37.434863 19.677560 -63.784937 18.366203 -0.842078 -7.528884 0.394580 -5.623010 -56.818599 43.952100 -35.001438 -18.684768 37.929133 -25.731408 43.657210 22.210715 5.481827 -0.378953 -7.146873 -2.045572 2.400507 -4.541940 -6.220500 -1.785129 6.696246 0.294705 0.011087 0.021809 0.010384 -0.101659 -8.572890 1.536533 0.525146 -2.174147 0.600760 -0.147625 6.114739 1.814996 0.025399 0.030767 -0.006654 
13.438172 5.121424 82.883484 -4.099628 -1.672888 -108.727193 -1.556481 -4.158340 1.368172 -0.674679 -1.851267 0.579520 -0.674679 -1.851267 0.579516 -0.504209 -1.389094 0.432555 1.506882 -25.292520 -0.834513 2.497151 -10.782794 -1.134819 7.573887 3.578281 -3.065015 64.759769 41.883799 35.127168 11.547262 38.362755 20.103813 -63.823958 18.645896 -1.479193 -7.452147 0.546041 -5.759658 -56.889998 43.902182 -35.762830 -19.148353 38.459255 -26.047961 43.765735 22.857534 6.450895 -0.373074 -7.229399 -2.083407 2.405753 -4.538150 -6.186783 -1.800926 6.742449 0.270969 0.013119 0.021343 0.010443 -0.093745 -8.633347 1.522511 0.529993 -2.200115 0.593205 -0.175691 6.154466 1.812860 0.026861 0.032974 -0.007654 
13.493172 5.084280 82.878593 -4.116783 -1.676225 -108.700712 -1.551125 -4.133729 1.352784 -0.672116 -1.840191 0.572836 -0.672116 -1.840192 0.572836 -0.502319 -1.380777 0.427567 1.496026 -25.214811 -0.834616 2.477460 -10.638442 -1.136420 7.470733 3.737610 -2.981713 65.008347 41.681731 36.166408 12.114206 39.167723 20.487677 -63.860985 18.907202 -2.105738 -7.412961 0.719828 -5.949038 -56.961179 43.999522 -36.505572 -19.721251 38.965184 -26.449453 43.966232 23.510088 7.380849 -0.361976 -7.293187 -2.094734 2.415675 -4.547266 -6.181308 -1.819961 6.791630 0.246142 0.015842 0.022482 0.010951 -0.082826 -8.691547 1.527630 0.539196 -2.211328 0.584565 -0.206417 6.188890 1.800600 0.027593 0.032680 -0.008185 
